<?xml version="1.0" standalone="no"?>
<!DOCTYPE svg PUBLIC "-//W3C//DTD SVG 1.1//EN" "http://www.w3.org/Graphics/SVG/1.1/DTD/svg11.dtd" >
<svg xmlns="http://www.w3.org/2000/svg">
<metadata>Generated by IcoMoon</metadata>
<defs>
<font id="icon" horiz-adv-x="1024">
<font-face units-per-em="1024" ascent="960" descent="-64" />
<missing-glyph horiz-adv-x="1024" />
<glyph unicode="&#x20;" horiz-adv-x="512" d="" />
<glyph unicode="&#xe900;" glyph-name="control-pause" d="M874.061 810.061c-199.963 199.896-524.137 199.963-724.1 0-199.963-199.918-199.963-524.093 0-724.078 199.918-199.963 524.137-199.963 724.1 0 199.896 199.963 199.896 524.137 0 724.078zM448.184 251.345c0-32.612-26.443-59.010-59.032-59.010s-59.010 26.398-59.010 59.010v393.31c0 32.567 26.42 59.010 59.010 59.010s59.032-26.443 59.032-59.010v-393.31zM693.835 251.345c0-32.612-26.443-59.010-59.010-59.010s-59.010 26.398-59.010 59.010v393.31c0 32.567 26.443 59.010 59.010 59.010s59.010-26.443 59.010-59.010v-393.31z" />
<glyph unicode="&#xe901;" glyph-name="control-play" d="M512 960c-282.791 0-512-229.209-512-512 0-282.788 229.209-512 512-512 282.788 0 512 229.212 512 512 0 282.791-229.212 512-512 512zM756.993 406.894l-305.404-210.101c-8.496-5.819-18.385-8.795-28.3-8.795-7.981 0-15.904 1.896-23.201 5.708-16.399 8.675-26.697 25.679-26.697 44.187v420.209c0 18.508 10.299 35.515 26.697 44.19 16.399 8.602 36.212 7.417 51.501-3.087l305.404-210.098c13.514-9.304 21.612-24.696 21.612-41.106s-8.095-31.803-21.612-41.106z" />
<glyph unicode="&#xe902;" glyph-name="folder" d="M512 957.867c-281.6 0-509.867-228.267-509.867-509.867s228.267-509.867 509.867-509.867 509.867 228.267 509.867 509.867-228.267 509.867-509.867 509.867zM748.8 305.067c0-25.6-21.333-46.933-46.933-46.933h-379.733c-25.6 0-46.933 21.333-46.933 46.933v285.867c0 25.6 21.333 46.933 46.933 46.933h142.933l46.933-49.067h192c25.6 0 46.933-21.333 46.933-46.933v-236.8z" />
<glyph unicode="&#xe903;" glyph-name="heart" d="M874.439 853.584c-41.459 22.84-89.012 35.976-139.746 35.976-89.512 0-169.674-40.79-222.606-104.753-53.182 63.962-133.268 104.753-222.902 104.753-50.612 0-98.077-13.136-139.629-35.976-89.152-49.373-149.555-144.299-149.555-253.389 0-31.231 5.082-61.183 14.287-89.204 49.64-223.135 497.8-504.551 497.8-504.551s447.863 281.41 497.574 504.551c9.205 28.021 14.339 58.014 14.339 89.204 0 109.050-60.404 203.946-149.561 253.389z" />
<glyph unicode="&#xe904;" glyph-name="help" d="M512 960c-282.6 0-512-229-512-511.8s229.4-512.2 512-512.2c282.8 0 512 229.4 512 512.2s-229.2 511.8-512 511.8zM548.6 163.4c-11.8-10.6-25.6-16-41.2-16-16.2 0-30.2 5.2-42.2 15.6s-18 25-18 43.8c0 16.6 5.8 30.8 17.4 42 11.6 11.4 26 17 42.8 17 16.6 0 30.8-5.6 42-17 11.4-11.4 17-25.4 17-42 0-18.2-6-32.8-17.8-43.4zM696.8 531c-9.2-17-20-31.6-32.6-43.8-12.6-12.4-35.2-33-67.6-62.2-9-8.2-16.2-15.4-21.6-21.6s-9.4-12-12.2-17c-2.6-5.2-4.8-10.4-6.2-15.4-1.4-5.2-3.6-14.2-6.6-27.2-5-27.6-20.8-41.2-47.2-41.2-13.8 0-25.4 4.4-34.8 13.4s-14 22.4-14 40c0 22.2 3.4 41.4 10.4 57.8 6.8 16.2 16 30.6 27.4 42.8 11.4 12.4 26.8 27 46 43.8 17 14.8 29.2 26 36.8 33.6s13.8 16 19 25.2c5.2 9.2 7.8 19.4 7.8 30.2 0 21.2-7.8 39-23.6 53.6s-36 21.8-61 21.8c-29.2 0-50.6-7.4-64.4-22s-25.4-36.4-35-64.8c-9-30-26-44.8-51.2-44.8-14.8 0-27.4 5.2-37.6 15.6s-15.2 21.8-15.2 34c0 25.2 8 50.6 24.2 76.4s39.8 47.2 70.6 64.2c31 17 67 25.4 108.4 25.4 38.4 0 72.2-7 101.6-21.2s52-33.4 68-57.8c16-24.4 24-50.8 24-79.4 0.2-22.8-4.2-42.4-13.4-59.4z" />
<glyph unicode="&#xe905;" glyph-name="intro-play" d="M512 960c-282.791 0-512-229.209-512-512 0-282.788 229.209-512 512-512 282.788 0 512 229.212 512 512 0 282.791-229.212 512-512 512zM756.993 406.894l-305.404-210.101c-8.496-5.819-18.385-8.795-28.3-8.795-7.981 0-15.904 1.896-23.201 5.708-16.399 8.675-26.697 25.679-26.697 44.187v420.209c0 18.508 10.299 35.515 26.697 44.19 16.399 8.602 36.212 7.417 51.501-3.087l305.404-210.098c13.514-9.304 21.612-24.696 21.612-41.106s-8.095-31.803-21.612-41.106z" />
<glyph unicode="&#xe906;" glyph-name="microphone" d="M511.892 950.517c-278.9 0-504.995-226.095-504.995-504.995s226.095-505.211 505.211-505.211 505.211 226.095 505.211 505.211-226.31 504.995-505.426 504.995zM402.401 623.337c0 30.175 10.777 56.039 32.115 77.377 21.553 21.553 47.202 32.115 77.377 32.115s56.039-10.777 77.377-32.115c21.553-21.553 32.115-47.202 32.115-77.377v-175.444c0-30.175-10.777-56.039-32.115-77.377-21.553-21.553-47.202-32.115-77.377-32.115s-56.039 10.777-77.377 32.115c-21.553 21.553-32.115 47.202-32.115 77.377v175.444zM709.321 448.108c0-50.435-16.812-94.404-50.435-131.691s-75.221-58.841-124.794-64.229v-45.262h87.722c6.035 0 10.992-2.155 15.518-6.466 4.311-4.311 6.466-9.483 6.466-15.518s-2.155-10.992-6.466-15.518c-4.311-4.311-9.483-6.466-15.518-6.466h-219.413c-6.035 0-10.992 2.155-15.518 6.466-4.311 4.311-6.466 9.483-6.466 15.518s2.155 10.992 6.466 15.518c4.311 4.311 9.483 6.466 15.518 6.466h87.722v45.262c-49.573 5.388-91.171 26.942-124.794 64.229-33.839 37.287-50.65 81.041-50.65 131.691v43.753c0 6.035 2.155 10.992 6.466 15.518 4.311 4.311 9.483 6.466 15.518 6.466s10.992-2.155 15.518-6.466c4.311-4.311 6.466-9.483 6.466-15.518v-43.753c0-42.245 15.087-78.454 45.047-108.413s66.169-45.047 108.413-45.047 78.454 15.087 108.413 45.047 45.047 66.169 45.047 108.413v43.753c0 6.035 2.155 10.992 6.466 15.518 4.311 4.311 9.483 6.466 15.518 6.466s10.992-2.155 15.518-6.466c4.311-4.311 6.466-9.483 6.466-15.518v-43.753h-0.216z" />
<glyph unicode="&#xe907;" glyph-name="soundcloud" d="M512 960c-282.923 0-512-229.077-512-512s229.077-512 512-512 512 229.077 512 512-229.077 512-512 512zM152.414 332.093c0-1.825-1.825-2.738-2.738-2.738s-2.738 0.913-2.738 2.738l-5.476 40.157 5.476 41.070c0 1.825 1.825 2.738 2.738 2.738 1.825 0 2.738-0.913 2.738-2.738l6.389-41.070-6.389-40.157zM179.793 307.451c0-1.825-1.825-2.738-2.738-2.738-1.825 0-2.738 0.913-2.738 2.738l-7.301 64.799 7.301 66.624c0 1.825 1.825 2.738 2.738 2.738 1.825 0 2.738-0.913 2.738-2.738l8.214-66.624-8.214-64.799zM209.911 296.499c0-1.825-1.825-3.651-3.651-3.651s-3.651 1.825-3.651 3.651l-7.301 75.75 7.301 79.401c0 1.825 1.825 3.651 3.651 3.651s3.651-1.825 3.651-3.651l8.214-79.401-8.214-75.75zM240.029 293.761c0-2.738-1.825-4.563-4.563-4.563s-4.563 1.825-4.563 4.563l-6.389 78.488 6.389 81.226c0 2.738 1.825 4.563 4.563 4.563 1.825 0 4.563-1.825 4.563-4.563l7.301-81.226-7.301-78.488zM270.146 292.848c0-2.738-2.738-4.563-4.563-4.563-2.738 0-4.563 1.825-4.563 4.563l-6.389 79.401 6.389 75.75c0 2.738 2.738 4.563 4.563 4.563 2.738 0 4.563-1.825 4.563-4.563l7.301-75.75-7.301-79.401zM300.264 292.848v0c0-2.738-2.738-5.476-5.476-5.476s-5.476 2.738-5.476 5.476l-5.476 79.401 5.476 122.296c0 2.738 2.738 5.476 5.476 5.476s5.476-2.738 5.476-5.476l6.389-122.296-6.389-79.401zM330.381 292.848v0c0-3.651-2.738-6.389-6.389-6.389s-6.389 2.738-6.389 6.389l-5.476 78.488 5.476 150.588c0 3.651 2.738 6.389 6.389 6.389s6.389-2.738 6.389-6.389l6.389-150.588-6.389-78.488zM362.324 294.674v0c0-3.651-2.738-6.389-7.301-6.389s-6.389 2.738-7.301 6.389l-5.476 77.576 5.476 163.365c0 3.651 2.738 6.389 7.301 6.389s6.389-2.738 7.301-6.389l5.476-163.365-5.476-77.576zM393.355 294.674c0-4.563-3.651-7.301-7.301-7.301s-7.301 3.651-7.301 7.301l-4.563 77.576 4.563 168.841c0 4.563 3.651 7.301 7.301 7.301s7.301-3.651 7.301-7.301l5.476-168.841-5.476-77.576zM425.298 295.586v0c0-4.563-3.651-8.214-8.214-8.214s-8.214 3.651-8.214 8.214l-4.563 76.663 4.563 164.278c0 4.563 3.651 8.214 8.214 8.214s8.214-3.651 8.214-8.214l4.563-164.278-4.563-76.663zM456.328 295.586v0c0-4.563-3.651-8.214-9.127-8.214-4.563 0-9.127 3.651-9.127 8.214l-3.651 76.663 3.651 157.889c0 4.563 3.651 9.127 9.127 9.127 4.563 0 9.127-3.651 9.127-9.127l4.563-158.802-4.563-75.75zM489.184 303.8v-7.301c0-2.738-0.913-4.563-2.738-6.389s-3.651-2.738-6.389-2.738-5.476 0.913-7.301 3.651c-0.913 1.825-1.825 3.651-1.825 5.476v0l-3.651 75.75 2.738 186.182v1.825c0 3.651 1.825 6.389 4.563 8.214 1.825 0.913 2.738 1.825 5.476 1.825 1.825 0 3.651-0.913 5.476-1.825 2.738-1.825 4.563-4.563 4.563-8.214l2.738-188.007-3.651-68.449zM520.214 297.412v0c0-5.476-4.563-10.039-10.039-10.039s-10.039 4.563-10.039 10.039l-1.825 36.506-1.825 37.419 3.651 205.348v0.913c0 2.738 1.825 5.476 3.651 7.301s3.651 1.825 6.389 1.825c1.825 0 3.651-0.913 5.476-1.825 2.738-1.825 4.563-4.563 4.563-8.214l4.563-205.348-4.563-73.925zM791.273 287.373h-252.806c-5.476 0.913-10.039 4.563-10.039 10.952v289.312c0 5.476 1.825 8.214 9.127 10.952 17.34 7.301 37.419 10.952 58.41 10.952 83.964 0 153.326-64.799 160.627-146.938 10.952 4.563 22.816 7.301 35.594 7.301 50.196 0 91.266-41.070 91.266-91.266-0.913-51.109-41.070-91.266-92.178-91.266z" />
<glyph unicode="&#xe908;" glyph-name="spotify" d="M511.802 960c-282.208 0-511.802-229.611-511.802-511.842 0-282.406 229.594-512.158 511.802-512.158 282.426 0 512.198 229.752 512.198 512.158 0 282.231-229.772 511.842-512.198 511.842zM252.072 260.088c59.338 18.063 120.177 27.222 180.818 27.222 102.991 0 204.666-26.1 294.079-75.507 5.318-2.897 10.153-12.479 12.322-24.408 2.169-11.925 1.306-24.19-2.176-30.569-4.395-8.185-13.312-13.477-22.723-13.477-4.663 0-8.763 1.048-12.862 3.263-82.081 45.116-174.973 68.967-268.641 68.967-56.589 0-112.143-8.377-165.072-24.875-2.578-0.782-5.231-1.182-7.883-1.182-11.59-0.003-21.648 7.38-25.023 18.335-4.556 14.977 4.868 48.212 17.16 52.231zM229.745 448.661c66.137 17.979 134.486 27.097 203.148 27.097 123.434 0 246.005-29.867 354.542-86.416 7.608-3.861 13.215-10.408 15.783-18.432 2.605-8.128 1.82-16.867-2.246-24.667-9.686-18.956-21.007-31.694-28.178-31.694-5.083 0-9.988 1.219-14.873 3.66-100.785 52.483-210.138 79.093-325.031 79.093-63.908 0-126.607-8.404-186.297-24.962-2.777-0.752-5.627-1.131-8.464-1.131-14.36-0.003-27.013 9.696-30.76 23.545-4.798 18.012 6.164 49.498 22.377 53.906zM224.028 571.867c-3.032-0.749-6.131-1.125-9.213-1.125-17.354-0.003-32.392 11.724-36.569 28.494-5.234 21.229 8.048 45.889 27.282 50.733 74.806 18.375 151.3 27.692 227.362 27.692 147.241 0 288.254-33.104 419.172-98.411 9.092-4.485 15.87-12.228 19.093-21.799 3.223-9.582 2.511-19.896-1.988-29.008-6.131-12.271-19.379-25.482-33.98-25.482-5.63 0-11.412 1.319-16.532 3.723-120.258 60.168-250.047 90.676-385.763 90.676-69.746-0.003-140.016-8.578-208.866-25.493z" />
<glyph unicode="&#xe909;" glyph-name="url-play" d="M766.2 487.4l-335 209.6c-14.4 9-32.4 9.4-47.2 1.2s-24-23.8-24-40.8v-419c0-17 9.2-32.6 24-40.8 7-3.8 14.8-5.8 22.6-5.8 8.6 0 17.2 2.4 24.6 7l335.2 209.4c13.6 8.6 21.8 23.4 21.8 39.4 0 16.4-8.2 31.4-22 39.8zM453 322.6v250.8l200.8-125.4-200.8-125.4zM512 960c-282.4 0-512-229.6-512-512s229.6-512 512-512 512 229.6 512 512-229.6 512-512 512zM512 29c-231 0-419 188-419 419s188 419 419 419 419-188 419-419-188-419-419-419z" />
<glyph unicode="&#xe90a;" glyph-name="volume-off" d="M512.101 960c-282.934 0-512.101-229.167-512.101-512.101s229.167-512.101 512.101-512.101 512.101 229.167 512.101 512.101-229.368 512.101-512.101 512.101zM545.328 204.032c-2.618-10.874-11.277-21.145-23.561-22.353-6.041-0.604-13.089 1.007-21.547 6.041 0 0-138.748 116.798-144.991 122.84h-76.322c-18.325 0-33.227 14.902-33.227 33.227v203.994c0 18.325 14.902 33.227 33.227 33.227h76.322c6.041 6.041 144.991 127.069 144.991 127.069 8.256 5.034 15.506 6.444 21.547 6.041 12.284-1.208 20.943-11.478 23.561-22.353 0.201-1.007 0.201-486.526 0-487.734zM772.481 390.507c7.854-7.854 7.854-20.742 0-28.797-7.854-7.854-20.742-7.854-28.797 0l-57.392 57.392-57.594-57.392c-7.854-7.854-20.742-7.854-28.797 0-7.854 7.854-7.854 20.742 0 28.797l57.392 57.594-57.191 57.392c-7.854 7.854-7.854 20.742 0 28.797 7.854 7.854 20.742 7.854 28.797 0l57.594-57.594 57.392 57.594c7.854 7.854 20.742 7.854 28.797 0s8.055-20.742 0-28.797l-57.795-57.594 57.594-57.392z" />
<glyph unicode="&#xe90b;" glyph-name="volume-on" d="M512.101 960c-282.934 0-512.101-229.167-512.101-512.101s229.167-512.101 512.101-512.101 512.101 229.167 512.101 512.101-229.368 512.101-512.101 512.101zM545.328 204.032c-2.618-10.874-11.277-21.145-23.561-22.353-6.041-0.604-13.089 1.007-21.547 6.041 0 0-138.748 116.798-144.991 122.84h-76.322c-18.325 0-33.227 14.902-33.227 33.227v203.994c0 18.325 14.902 33.227 33.227 33.227h76.322c6.041 6.041 144.991 127.069 144.991 127.069 8.256 5.034 15.506 6.444 21.547 6.041 12.284-1.208 20.943-11.478 23.561-22.353 0.201-1.007 0.201-486.526 0-487.734zM620.039 327.677c-6.444 0-12.888 2.417-17.923 7.451-9.867 9.867-9.867 25.776 0 35.644 42.692 42.49 42.692 111.965 0 154.456-9.867 9.867-9.867 25.776 0 35.644s25.776 9.867 35.644 0c62.225-62.225 62.225-163.518 0-225.743-4.833-5.034-11.277-7.451-17.721-7.451zM727.574 287.604c-4.833-4.833-11.277-7.451-17.923-7.451s-12.888 2.417-17.923 7.451c-9.867 9.867-9.867 25.776 0 35.644 68.871 68.871 68.871 180.836 0 249.506-9.867 9.867-9.867 25.776 0 35.644s25.776 9.867 35.644 0c42.893-42.893 66.454-99.883 66.454-160.497 0.201-60.614-23.561-117.403-66.253-160.296z" />
<glyph unicode="&#xe90c;" glyph-name="window-expand" d="M511.875 960c-282.767 0-511.875-229.108-511.875-511.875s229.108-511.875 511.875-511.875 511.875 229.108 511.875 511.875-229.108 511.875-511.875 511.875zM469.198 182.329h-195.666c-15.224 0-27.204 12.978-27.204 28.202v198.91c0 15.224 12.479 27.703 27.703 27.703s27.703-12.479 27.703-27.703v-133.522l140.26 140.26c5.491 4.991 12.479 7.986 19.217 7.986 6.988 0 13.727-2.745 19.217-8.236 10.482-10.482 10.482-28.701 0-39.183l-139.262-139.262h128.281c14.974 0 27.453-11.98 27.453-27.204 0-15.474-12.479-27.952-27.703-27.952zM781.165 485.311c0-15.224-12.479-27.703-27.703-27.703s-27.703 12.479-27.703 27.703v135.269l-138.763-137.765c-10.732-10.482-29.699-10.482-40.181 0-10.482 10.981-10.482 28.701 0 39.183l139.761 139.761h-133.522c-15.224 0-27.453 12.479-27.453 27.703s12.479 27.703 27.703 27.703h197.912c14.974 0 29.949-12.479 29.949-27.703v-204.151z" />
<glyph unicode="&#xe90d;" glyph-name="window-minimize" d="M511.875 960c-282.767 0-511.875-229.108-511.875-511.875s229.108-511.875 511.875-511.875 511.875 229.108 511.875 511.875-229.108 511.875-511.875 511.875zM496.901 210.032c0-15.224-12.479-27.703-27.703-27.703s-27.703 12.479-27.703 27.703v133.522l-140.26-140.26c-5.491-4.991-12.479-7.986-19.217-7.986s-13.727 2.745-19.217 8.236c-10.482 10.482-10.482 28.701 0 39.183l139.262 139.262h-128.281c-14.974 0-27.453 11.98-27.453 27.204s12.479 27.703 27.703 27.703h195.666c15.224 0 27.204-12.978 27.204-28.202v-198.66zM753.462 457.858h-197.662c-14.974 0-29.949 12.479-29.949 27.703v204.401c0 15.224 12.479 27.703 27.703 27.703s27.703-12.479 27.703-27.703v-135.269l138.763 137.765c10.732 10.482 29.699 10.482 40.181 0 10.482-10.981 10.482-28.701 0-39.183l-139.761-139.761h133.272c15.224 0 27.453-12.479 27.453-27.703 0-15.723-12.479-27.952-27.703-27.952z" />
<glyph unicode="&#xe90e;" glyph-name="chevron" d="M1011.523 478.548l-279.664 279.664c-16.78 16.78-44.316 16.78-61.096 0s-16.78-44.316 0-61.096l249.116-249.116-248.686-249.116c-16.78-16.78-16.78-44.316 0-61.096s44.316-16.78 61.096 0l279.664 279.234c8.605 8.605 12.477 19.792 12.477 30.548-0.43 11.617-4.733 22.373-12.908 30.978zM12.477 417.452l279.664-279.664c16.78-16.78 44.316-16.78 61.096 0s16.78 44.316 0 61.096l-249.546 249.116 249.116 249.116c16.78 16.78 16.78 44.316 0 61.096s-44.316 16.78-61.096 0l-279.664-279.234c-8.605-8.605-12.477-19.792-12.477-30.548 0.43-11.617 4.733-22.373 12.908-30.978z" />
<glyph unicode="&#xe90f;" glyph-name="key-space" horiz-adv-x="3070" d="M1393.712 569.792c-11.824 10.248-30.744 14.978-55.969 14.978h-70.159v-120.61h70.159c25.226 0 44.145 4.73 55.969 14.978s18.131 25.226 18.131 44.933-6.306 35.473-18.131 45.721zM3014.454 903.242c-37.838 37.838-82.771 55.969-135.587 55.969h-2687.31c-52.816 0-97.749-18.919-135.587-55.969-37.838-37.838-55.969-82.771-55.969-135.587v-640.099c0-52.816 18.919-97.749 55.969-135.587 37.838-37.838 82.771-55.969 135.587-55.969h2687.31c52.816 0 97.749 18.919 135.587 55.969 37.838 37.838 55.969 82.771 55.969 135.587v640.099c0 52.816-18.919 98.537-55.969 135.587zM683.455 258.414h-301.13v390.996h293.247v-65.429h-211.264v-96.961h166.331v-63.064h-166.331v-99.326h219.935v-66.217h-0.788zM882.106 506.728c12.613-7.883 35.473-14.189 68.582-20.496 34.685-6.306 62.276-14.189 81.983-24.437 20.496-9.46 35.473-21.284 44.933-36.262 9.46-14.189 14.189-32.32 14.189-53.604 0-23.649-6.306-43.356-19.707-60.699s-31.532-29.955-55.181-39.415-50.451-14.189-80.406-14.189c-41.78 0-75.677 5.518-102.479 17.343s-48.086 29.167-64.64 52.816l47.298 55.969c14.189-23.649 30.744-39.415 48.875-48.875 18.131-8.671 40.992-13.401 68.582-13.401 24.437 0 43.356 3.941 55.969 11.824s18.919 18.919 18.919 33.109c0 10.248-6.306 18.919-18.131 26.014s-33.897 13.401-64.64 19.707c-35.473 7.095-63.852 15.766-85.136 26.014s-37.050 22.072-46.51 37.050c-9.46 14.189-14.189 32.32-14.189 54.393 0 22.861 6.306 43.356 18.131 61.487 12.613 18.131 29.955 32.32 53.604 42.568s51.239 15.766 82.771 15.766c35.473 0 65.429-5.518 90.654-17.343s47.298-29.955 67.005-55.181l-54.393-53.604c-10.248 20.496-22.861 36.262-39.415 46.51s-37.050 14.978-62.276 14.978c-22.861 0-40.992-3.941-52.816-12.613-12.613-8.671-18.919-19.707-18.919-33.897-1.577-13.401 4.73-24.437 17.343-31.532zM1456.776 433.416c-25.226-22.072-60.699-32.32-105.632-32.32h-81.983v-141.894h-82.771v390.996h163.966c45.721 0 80.406-11.036 105.632-33.109s37.838-52.816 37.838-93.019c0.788-38.627-11.824-68.582-37.050-90.654zM1818.605 258.414l-32.32 95.384h-150.565l-32.32-95.384h-83.56l142.682 390.996h97.749l142.682-390.996h-84.348zM2245.075 276.545c-29.167-18.919-63.852-28.379-104.844-28.379-37.838 0-71.735 7.883-100.114 24.437-28.379 15.766-50.451 39.415-65.429 69.37s-22.861 66.217-22.861 107.209c0 40.992 7.883 77.253 22.861 107.209s37.050 53.604 64.64 69.37c28.379 15.766 61.487 24.437 98.537 24.437 40.203 0 74.888-8.671 103.267-25.226s47.298-41.78 58.334-75.677l-74.1-31.532c-6.306 22.861-15.766 40.203-29.167 50.451s-31.532 14.978-54.393 14.978c-33.109 0-59.122-11.824-78.042-34.685s-28.379-55.969-28.379-99.326c0-42.568 8.671-75.677 26.802-99.326 18.131-22.861 43.356-34.685 76.465-34.685 47.298 0 77.253 22.861 89.866 69.37l74.888-22.072c-9.46-38.627-29.955-67.005-58.334-85.925zM2688.099 248.166h-309.801v401.244h301.13v-67.794h-217.57v-100.114h171.061v-64.64h-171.061v-102.479h225.453l0.788-66.217zM1711.396 583.982h-1.577l-16.554-58.334-37.838-111.15h110.362l-37.050 110.362z" />
<glyph unicode="&#xe910;" glyph-name="key-u" d="M967.721 903.721c-37.597 37.597-82.667 56.279-135.677 56.279h-640.088c-52.776 0-98.080-18.682-135.677-56.279s-56.279-82.901-56.279-135.677v-640.088c0-52.776 18.682-98.080 56.279-135.677s82.901-56.279 135.677-56.279h640.088c52.776 0 98.080 18.682 135.677 56.279s56.279 82.901 56.279 135.677v640.088c0 52.776-18.682 98.080-56.279 135.677zM749.377 393.239c0-75.195-20.083-131.941-60.249-170.005-39.932-38.064-99.014-57.213-177.011-57.213s-137.078 19.149-177.244 57.213c-40.166 38.064-60.249 94.81-60.249 170.005v336.741h116.061v-331.603c0-46.471 10.042-81.033 29.891-103.451s50.441-33.627 91.308-33.627c40.867 0 71.225 11.209 90.841 33.627s29.424 56.98 29.424 103.451v331.603h116.995v-336.741z" />
<glyph unicode="&#xe911;" glyph-name="key-arrow-left" d="M56.279-7.721c37.597-37.597 82.667-56.279 135.677-56.279h640.088c52.776 0 98.080 18.682 135.677 56.279s56.279 82.901 56.279 135.677v640.088c0 52.776-18.682 98.080-56.279 135.677s-82.901 56.279-135.677 56.279h-640.088c-52.776 0-98.080-18.682-135.677-56.279s-56.279-82.901-56.279-135.677v-640.088c0-52.776 18.682-98.080 56.279-135.677zM223.015 482.445l171.406 201.764c14.478 17.047 35.262 25.921 55.812 25.921 16.814 0 33.627-5.605 47.405-17.514 30.825-26.155 34.795-72.626 8.407-103.217l-68.889-81.266h295.407c40.4 0 73.326-32.693 73.326-73.326 0-40.4-32.927-73.326-73.326-73.326h-295.407l68.889-81.033c26.155-30.825 22.418-77.296-8.407-103.451s-77.063-22.418-103.217 8.407l-171.406 201.764c-23.352 27.789-23.352 67.955 0 95.278z" />
<glyph unicode="&#xe912;" glyph-name="key-f" d="M967.721 903.721c-37.597 37.597-82.667 56.279-135.677 56.279h-640.088c-52.776 0-98.080-18.682-135.677-56.279s-56.279-82.901-56.279-135.677v-640.088c0-52.776 18.682-98.080 56.279-135.677s82.901-56.279 135.677-56.279h640.088c52.776 0 98.080 18.682 135.677 56.279s56.279 82.901 56.279 135.677v640.088c0 52.776-18.682 98.080-56.279 135.677zM722.755 634.935h-303.814v-142.449h239.829v-95.511h-239.829v-230.488h-117.696v563.025h421.51v-94.577z" />
<glyph unicode="&#xe913;" glyph-name="key-m" d="M967.721 903.721c-37.597 37.597-82.667 56.279-135.677 56.279h-640.088c-52.776 0-98.080-18.682-135.677-56.279s-56.279-82.901-56.279-135.677v-640.088c0-52.776 18.682-98.080 56.279-135.677s82.901-56.279 135.677-56.279h640.088c52.776 0 98.080 18.682 135.677 56.279s56.279 82.901 56.279 135.677v640.088c0 52.776-18.682 98.080-56.279 135.677zM797.015 185.87h-98.547v273.222l4.67 153.191h-1.635l-145.252-426.414h-89.673l-144.317 426.414h-1.635l5.605-153.191v-273.222h-99.247v524.026h158.796l94.577-285.833 33.394-118.396h1.635l34.094 117.462 93.643 286.533h154.125v-523.793z" />
<glyph unicode="&#xe914;" glyph-name="key-arrow-right" d="M967.721 903.721c-37.597 37.597-82.667 56.279-135.677 56.279h-640.088c-52.776 0-98.080-18.682-135.677-56.279s-56.279-82.901-56.279-135.677v-640.088c0-52.776 18.682-98.080 56.279-135.677s82.901-56.279 135.677-56.279h640.088c52.776 0 98.080 18.682 135.677 56.279s56.279 82.901 56.279 135.677v640.088c0 52.776-18.682 98.080-56.279 135.677zM800.985 413.555l-171.406-201.764c-14.478-17.047-35.262-25.921-55.812-25.921-16.814 0-33.627 5.605-47.405 17.514-30.825 26.155-34.795 72.626-8.407 103.217l68.889 81.266h-295.407c-40.4 0-73.326 32.693-73.326 73.326 0 40.4 32.927 73.326 73.326 73.326h295.407l-68.889 81.033c-26.155 30.825-22.418 77.296 8.407 103.451s77.063 22.418 103.217-8.407l171.406-201.764c23.352-27.789 23.352-67.955 0-95.278z" />
<glyph unicode="&#xe915;" glyph-name="key-arrow-top" d="M56.279 903.721c-37.597-37.597-56.279-82.667-56.279-135.677v-640.088c0-52.776 18.682-98.080 56.279-135.677s82.901-56.279 135.677-56.279h640.088c52.776 0 98.080 18.682 135.677 56.279s56.279 82.901 56.279 135.677v640.088c0 52.776-18.682 98.080-56.279 135.677s-82.901 56.279-135.677 56.279h-640.088c-52.776 0-98.080-18.682-135.677-56.279zM546.445 736.985l201.764-171.406c17.047-14.478 25.921-35.262 25.921-55.812 0-16.814-5.605-33.627-17.514-47.405-26.155-30.825-72.626-34.795-103.217-8.407l-81.266 68.889v-295.407c0-40.4-32.693-73.326-73.326-73.326-40.4 0-73.326 32.927-73.326 73.326v295.407l-81.033-68.889c-30.825-26.155-77.296-22.418-103.451 8.407s-22.418 77.063 8.407 103.217l201.764 171.406c27.789 23.352 67.955 23.352 95.278 0z" />
<glyph unicode="&#xe916;" glyph-name="key-arrow-bottom" d="M967.721-7.721c37.597 37.597 56.279 82.667 56.279 135.677v640.088c0 52.776-18.682 98.080-56.279 135.677s-82.901 56.279-135.677 56.279h-640.088c-52.776 0-98.080-18.682-135.677-56.279s-56.279-82.901-56.279-135.677v-640.088c0-52.776 18.682-98.080 56.279-135.677s82.901-56.279 135.677-56.279h640.088c52.776 0 98.080 18.682 135.677 56.279zM477.555 159.015l-201.764 171.406c-17.047 14.478-25.921 35.262-25.921 55.812 0 16.814 5.605 33.627 17.514 47.405 26.155 30.825 72.626 34.795 103.217 8.407l81.266-68.889v295.407c0 40.4 32.693 73.326 73.326 73.326 40.4 0 73.326-32.927 73.326-73.326v-295.407l81.033 68.889c30.825 26.155 77.296 22.418 103.451-8.407s22.418-77.063-8.407-103.217l-201.764-171.406c-27.789-23.352-67.955-23.352-95.278 0z" />
</font>
</defs>
</svg>
