<?xml version="1.0" encoding="utf-8"?>
<!-- Generator: Adobe Illustrator 21.0.0, SVG Export Plug-In . SVG Version: 6.00 Build 0)  -->
<svg version="1.1" id="Capa_1" xmlns="http://www.w3.org/2000/svg" xmlns:xlink="http://www.w3.org/1999/xlink" x="0px" y="0px"
	 viewBox="0 0 238 238" style="enable-background:new 0 0 238 238;" xml:space="preserve">
<style type="text/css">
	.st0{fill:#010002;}
	.st1{display:none;fill:#010002;}
</style>
<path class="st0" d="M235.1,111.9l-65-65c-3.9-3.9-10.3-3.9-14.2,0s-3.9,10.3,0,14.2l57.9,57.9L156,176.9c-3.9,3.9-3.9,10.3,0,14.2
	c3.9,3.9,10.3,3.9,14.2,0l65-64.9c2-2,2.9-4.6,2.9-7.1C238,116.4,237,113.9,235.1,111.9z"/>
<path class="st0" d="M2.9,126.1l65,65c3.9,3.9,10.3,3.9,14.2,0c3.9-3.9,3.9-10.3,0-14.2L24.1,119L82,61.1c3.9-3.9,3.9-10.3,0-14.2
	c-3.9-3.9-10.3-3.9-14.2,0l-65,64.9c-2,2-2.9,4.6-2.9,7.1C0,121.6,1,124.1,2.9,126.1z"/>
<path class="st1" d="M181.8,107.7L78.7,4.6c-6.2-6.2-16.3-6.2-22.5,0s-6.2,16.3,0,22.5l91.9,91.9l-91.9,91.9
	c-6.2,6.2-6.2,16.3,0,22.5s16.3,6.2,22.5,0l103.1-103c3.1-3.1,4.7-7.2,4.6-11.3C186.4,114.9,184.9,110.8,181.8,107.7z"/>
</svg>
