<?xml version="1.0" encoding="utf-8"?>
<!-- Generator: Adobe Illustrator 21.0.0, SVG Export Plug-In . SVG Version: 6.00 Build 0)  -->
<svg version="1.1" id="Capa_1" xmlns="http://www.w3.org/2000/svg" xmlns:xlink="http://www.w3.org/1999/xlink" x="0px" y="0px"
	 viewBox="0 0 512 512" style="enable-background:new 0 0 512 512;" xml:space="preserve">
<style type="text/css">
	.st0{fill:#F7A3A2;}
	.st1{fill:#FFFFFF;}
	.st2{font-family:'WorkSans-Light';}
	.st3{font-size:30px;}
</style>
<rect class="st0" width="512" height="512"/>
<path class="st1" d="M349.4,122.2l-112.3,34.4c-13.6,3.9-24.6,18.1-24.6,31.7V305c0,0,0,1.6,0,1.6c0,0-8.1-5.5-26.3-2.9
	c-26.6,3.8-48.2,24.2-48.2,45.6s21.6,34.6,48.2,30.8c26.6-3.8,46.1-23.6,46.1-45c0,0,0-91.6,0-101.1s11.4-13.6,11.4-13.6l99.3-31.1
	c0,0,11-3.7,11,6.5s0,81.2,0,81.2s0,0,0,0.1c0,0-10.1-5.8-28.2-3.6c-26.6,3.2-48.2,23.2-48.2,44.6c0,21.4,21.6,35,48.2,31.8
	c26.6-3.2,48.2-23.2,48.2-44.6V139.8C374,126.2,363,118.3,349.4,122.2z"/>
<text transform="matrix(1 0 0 1 167 439)" class="st1 st2 st3">SoundRound</text>
</svg>
