<?xml version="1.0" encoding="utf-8"?>
<!-- Generator: Adobe Illustrator 21.0.0, SVG Export Plug-In . SVG Version: 6.00 Build 0)  -->
<svg version="1.1" id="Calque_1" xmlns="http://www.w3.org/2000/svg" xmlns:xlink="http://www.w3.org/1999/xlink" x="0px" y="0px"
	 viewBox="0 0 48 48" style="enable-background:new 0 0 48 48;" xml:space="preserve">
<style type="text/css">
	.st0{display:none;}
	.st1{display:none;fill:none;}
</style>
<path class="st0" d="M24,0.2C10.9,0.2,0.2,10.9,0.2,24S10.9,47.8,24,47.8S47.8,37.1,47.8,24S37.1,0.2,24,0.2z M35.2,30.7
	c0,1.2-1,2.2-2.2,2.2H15c-1.2,0-2.2-1-2.2-2.2V17.2c0-1.2,1-2.2,2.2-2.2h6.7l2.2,2.2h9c1.2,0,2.2,1,2.2,2.2L35.2,30.7L35.2,30.7z"/>
<path class="st1" d="M0,0h48v48H0V0z"/>
<circle class="st0" cx="24" cy="24" r="23.9"/>
<path class="st0" d="M21.7,15.1h-6.7c-1.2,0-2.2,1-2.2,2.2v13.4c0,1.2,1,2.2,2.2,2.2h17.8c1.2,0,2.2-1,2.2-2.2V19.6
	c0-1.2-1-2.2-2.2-2.2h-9L21.7,15.1z"/>
<path d="M24,0.1C10.8,0.1,0.1,10.8,0.1,24S10.8,47.9,24,47.9S47.9,37.2,47.9,24S37.2,0.1,24,0.1z M35.1,30.7c0,1.2-1,2.2-2.2,2.2
	H15.1c-1.2,0-2.2-1-2.2-2.2V17.3c0-1.2,1-2.2,2.2-2.2h6.7l2.2,2.3h9c1.2,0,2.2,1,2.2,2.2V30.7z"/>
</svg>
