<?xml version="1.0" encoding="utf-8"?>
<!-- Generator: Adobe Illustrator 21.0.0, SVG Export Plug-In . SVG Version: 6.00 Build 0)  -->
<svg version="1.1" id="Capa_1" xmlns="http://www.w3.org/2000/svg" xmlns:xlink="http://www.w3.org/1999/xlink" x="0px" y="0px"
	 viewBox="0 0 512 512" style="enable-background:new 0 0 512 512;" xml:space="preserve">
<g>
	<path d="M256,0C114.7,0,0,114.5,0,255.9C0,397.3,114.7,512,256,512c141.4,0,256-114.7,256-256.1C512,114.5,397.4,0,256,0z
		 M274.3,398.3c-5.9,5.3-12.8,8-20.6,8c-8.1,0-15.1-2.6-21.1-7.8c-6-5.2-9-12.5-9-21.9c0-8.3,2.9-15.4,8.7-21
		c5.8-5.7,13-8.5,21.4-8.5c8.3,0,15.4,2.8,21,8.5c5.7,5.7,8.5,12.7,8.5,21C283.2,385.7,280.2,393,274.3,398.3z M348.4,214.5
		c-4.6,8.5-10,15.8-16.3,21.9c-6.3,6.2-17.6,16.5-33.8,31.1c-4.5,4.1-8.1,7.7-10.8,10.8c-2.7,3.1-4.7,6-6.1,8.5
		c-1.3,2.6-2.4,5.2-3.1,7.7c-0.7,2.6-1.8,7.1-3.3,13.6c-2.5,13.8-10.4,20.6-23.6,20.6c-6.9,0-12.7-2.2-17.4-6.7
		c-4.7-4.5-7-11.2-7-20c0-11.1,1.7-20.7,5.2-28.9c3.4-8.1,8-15.3,13.7-21.4c5.7-6.2,13.4-13.5,23-21.9c8.5-7.4,14.6-13,18.4-16.8
		c3.8-3.8,6.9-8,9.5-12.6c2.6-4.6,3.9-9.7,3.9-15.1c0-10.6-3.9-19.5-11.8-26.8c-7.9-7.3-18-10.9-30.5-10.9c-14.6,0-25.3,3.7-32.2,11
		c-6.9,7.3-12.7,18.2-17.5,32.4c-4.5,15-13,22.4-25.6,22.4c-7.4,0-13.7-2.6-18.8-7.8c-5.1-5.2-7.6-10.9-7.6-17
		c0-12.6,4-25.3,12.1-38.2c8.1-12.9,19.9-23.6,35.3-32.1c15.5-8.5,33.5-12.7,54.2-12.7c19.2,0,36.1,3.5,50.8,10.6
		c14.7,7.1,26,16.7,34,28.9c8,12.2,12,25.4,12,39.7C355.2,196.2,353,206,348.4,214.5z"/>
</g>
</svg>
