<?xml version="1.0" encoding="utf-8"?>
<!-- Generator: Adobe Illustrator 21.0.0, SVG Export Plug-In . SVG Version: 6.00 Build 0)  -->
<svg version="1.1" id="Capa_1" xmlns="http://www.w3.org/2000/svg" xmlns:xlink="http://www.w3.org/1999/xlink" x="0px" y="0px"
	 viewBox="0 0 438.5 438.5" style="enable-background:new 0 0 438.5 438.5;" xml:space="preserve">
<style type="text/css">
	.st0{display:none;}
	.st1{display:none;fill:#F42CDC;}
	.st2{font-family:'WorkSans-SemiBold';}
	.st3{font-size:340px;}
	.st4{display:inline;fill:#F42CDC;}
	.st5{display:none;fill:none;}
</style>
<path class="st0" d="M414.4,24.1C398.3,8,379,0,356.3,0H82.2c-22.6,0-42,8-58.1,24.1C8,40.2,0,59.6,0,82.2v274.1
	c0,22.6,8,42,24.1,58.1c16.1,16.1,35.5,24.1,58.1,24.1h274.1c22.6,0,42-8,58.1-24.1c16.1-16.1,24.1-35.5,24.1-58.1V82.2
	C438.5,59.6,430.5,40.2,414.4,24.1z M309.5,139.2H179.4v61h102.7v40.9H179.4v98.7H129V98.7h180.5V139.2z"/>
<path class="st0" d="M414.4,24.1C398.3,8,379,0,356.3,0H82.2c-22.6,0-42,8-58.1,24.1C8,40.2,0,59.6,0,82.2v274.1
	c0,22.6,8,42,24.1,58.1c16.1,16.1,35.5,24.1,58.1,24.1h274.1c22.6,0,42-8,58.1-24.1c16.1-16.1,24.1-35.5,24.1-58.1V82.2
	C438.5,59.6,430.5,40.2,414.4,24.1z M320.9,242.7c0,32.2-8.6,56.5-25.8,72.8C278,331.8,252.7,340,219.3,340
	c-33.4,0-58.7-8.2-75.9-24.5c-17.2-16.3-25.8-40.6-25.8-72.8V98.5h49.7v142c0,19.9,4.3,34.7,12.8,44.3c8.5,9.6,21.6,14.4,39.1,14.4
	c17.5,0,30.5-4.8,38.9-14.4c8.4-9.6,12.6-24.4,12.6-44.3v-142h50.1V242.7z"/>
<path d="M414.4,24.1C398.3,8,379,0,356.3,0H82.2c-22.6,0-42,8-58.1,24.1C8,40.2,0,59.6,0,82.2v274.1c0,22.6,8,42,24.1,58.1
	c16.1,16.1,35.5,24.1,58.1,24.1h274.1c22.6,0,42-8,58.1-24.1c16.1-16.1,24.1-35.5,24.1-58.1V82.2C438.5,59.6,430.5,40.2,414.4,24.1z
	 M341.3,331.5h-42.2v-117l2-65.6h-0.7l-62.2,182.6h-38.4L138,148.9h-0.7l2.4,65.6v117H97.2V107.1h68l40.5,122.4l14.3,50.7h0.7
	l14.6-50.3l40.1-122.7h66V331.5z"/>
<path class="st0" d="M414.4,24.1C398.3,8,379,0,356.3,0H82.2c-22.6,0-42,8-58.1,24.1C8,40.2,0,59.6,0,82.2v274.1
	c0,22.6,8,42,24.1,58.1c16.1,16.1,35.5,24.1,58.1,24.1h274.1c22.6,0,42-8,58.1-24.1c16.1-16.1,24.1-35.5,24.1-58.1V82.2
	C438.5,59.6,430.5,40.2,414.4,24.1z M343,234l-73.4,86.4c-6.2,7.3-15.1,11.1-23.9,11.1c-7.2,0-14.4-2.4-20.3-7.5
	c-13.2-11.2-14.9-31.1-3.6-44.2l29.5-34.8H124.8c-17.3,0-31.4-14-31.4-31.4c0-17.3,14.1-31.4,31.4-31.4h126.5l-29.5-34.7
	c-11.2-13.2-9.6-33.1,3.6-44.3c13.2-11.2,33-9.6,44.2,3.6l73.4,86.4C353,205.1,353,222.3,343,234z"/>
<text transform="matrix(1 0 0 1 121.5762 335.4102)" class="st1 st2 st3">F</text>
<path class="st0" d="M414.4,24.1C398.3,8,379,0,356.3,0H82.2c-22.6,0-42,8-58.1,24.1C8,40.2,0,59.6,0,82.2v274.1
	c0,22.6,8,42,24.1,58.1c16.1,16.1,35.5,24.1,58.1,24.1h274.1c22.6,0,42-8,58.1-24.1c16.1-16.1,24.1-35.5,24.1-58.1V82.2
	C438.5,59.6,430.5,40.2,414.4,24.1z"/>
<text transform="matrix(1 0 0 1 121.5762 335.4102)" class="st1 st2 st3">F</text>
<g class="st0">
	<path class="st4" d="M341.3,331.5h-42.2v-117l2-65.6h-0.7l-62.2,182.6h-38.4L138,148.9h-0.7l2.4,65.6v117H97.2V107.1h68l40.5,122.4
		l14.3,50.7h0.7l14.6-50.3l40.1-122.7h66V331.5z"/>
</g>
<path class="st0" d="M414.4,24.1C398.3,8,379,0,356.3,0H82.2c-22.6,0-42,8-58.1,24.1C8,40.2,0,59.6,0,82.2v274.1
	c0,22.6,8,42,24.1,58.1c16.1,16.1,35.5,24.1,58.1,24.1h274.1c22.6,0,42-8,58.1-24.1c16.1-16.1,24.1-35.5,24.1-58.1V82.2
	C438.5,59.6,430.5,40.2,414.4,24.1z M309.5,139.2H179.4v61h102.7v40.9H179.4v98.7H129V98.7h180.5V139.2z"/>
<path class="st5" d="M269.6,106.9c-11.2-13.3-31.1-14.9-44.2-3.6c-13.2,11.2-14.9,31.1-3.6,44.3l29.5,34.7H124.8
	c-17.3,0-31.4,14-31.4,31.4c0,17.3,14.1,31.4,31.4,31.4h126.5l-29.5,34.8c-11.2,13.2-9.6,33,3.6,44.2c5.9,5,13.1,7.5,20.3,7.5
	c8.9,0,17.7-3.8,23.9-11.1L343,234c10-11.7,10-28.9,0-40.6L269.6,106.9z"/>
</svg>
