<?xml version="1.0" encoding="utf-8"?>
<!-- Generator: Adobe Illustrator 21.0.0, SVG Export Plug-In . SVG Version: 6.00 Build 0)  -->
<svg version="1.1" id="Capa_1" xmlns="http://www.w3.org/2000/svg" xmlns:xlink="http://www.w3.org/1999/xlink" x="0px" y="0px"
	 viewBox="0 0 438.5 438.5" style="enable-background:new 0 0 438.5 438.5;" xml:space="preserve">
<style type="text/css">
	.st0{display:none;}
	.st1{display:none;fill:#F42CDC;enable-background:new    ;}
	.st2{font-family:'WorkSans-SemiBold';}
	.st3{font-size:340px;}
	.st4{display:none;enable-background:new    ;}
	.st5{display:inline;fill:#F42CDC;}
	.st6{display:inline;enable-background:new    ;}
	.st7{fill:#F42CDC;}
	.st8{font-size:92.4596px;}
	.st9{display:none;fill:none;}
</style>
<path class="st0" d="M414.4,24.1C398.3,8,379,0,356.3,0H82.2c-22.6,0-42,8-58.1,24.1S0,59.6,0,82.2v274.1c0,22.6,8,42,24.1,58.1
	s35.5,24.1,58.1,24.1h274.1c22.6,0,42-8,58.1-24.1s24.1-35.5,24.1-58.1V82.2C438.5,59.6,430.5,40.2,414.4,24.1z M309.5,139.2H179.4
	v61h102.7v40.9H179.4v98.7H129V98.7h180.5V139.2z"/>
<path class="st0" d="M414.4,24.1C398.3,8,379,0,356.3,0H82.2c-22.6,0-42,8-58.1,24.1S0,59.6,0,82.2v274.1c0,22.6,8,42,24.1,58.1
	s35.5,24.1,58.1,24.1h274.1c22.6,0,42-8,58.1-24.1s24.1-35.5,24.1-58.1V82.2C438.5,59.6,430.5,40.2,414.4,24.1z M320.9,242.7
	c0,32.2-8.6,56.5-25.8,72.8C278,331.8,252.7,340,219.3,340s-58.7-8.2-75.9-24.5s-25.8-40.6-25.8-72.8V98.5h49.7v142
	c0,19.9,4.3,34.7,12.8,44.3c8.5,9.6,21.6,14.4,39.1,14.4s30.5-4.8,38.9-14.4s12.6-24.4,12.6-44.3v-142h50.1v144.2H320.9z"/>
<path class="st0" d="M414.4,24.1C398.3,8,379,0,356.3,0H82.2c-22.6,0-42,8-58.1,24.1S0,59.6,0,82.2v274.1c0,22.6,8,42,24.1,58.1
	s35.5,24.1,58.1,24.1h274.1c22.6,0,42-8,58.1-24.1s24.1-35.5,24.1-58.1V82.2C438.5,59.6,430.5,40.2,414.4,24.1z M341.3,331.5h-42.2
	v-117l2-65.6h-0.7l-62.2,182.6h-38.4L138,148.9h-0.7l2.4,65.6v117H97.2V107.1h68l40.5,122.4l14.3,50.7h0.7l14.6-50.3l40.1-122.7h66
	v224.3H341.3z"/>
<path class="st0" d="M414.4,24.1C398.3,8,379,0,356.3,0H82.2c-22.6,0-42,8-58.1,24.1S0,59.6,0,82.2v274.1c0,22.6,8,42,24.1,58.1
	s35.5,24.1,58.1,24.1h274.1c22.6,0,42-8,58.1-24.1s24.1-35.5,24.1-58.1V82.2C438.5,59.6,430.5,40.2,414.4,24.1z M343,234l-73.4,86.4
	c-6.2,7.3-15.1,11.1-23.9,11.1c-7.2,0-14.4-2.4-20.3-7.5c-13.2-11.2-14.9-31.1-3.6-44.2l29.5-34.8H124.8c-17.3,0-31.4-14-31.4-31.4
	c0-17.3,14.1-31.4,31.4-31.4h126.5l-29.5-34.7c-11.2-13.2-9.6-33.1,3.6-44.3c13.2-11.2,33-9.6,44.2,3.6l73.4,86.4
	C353,205.1,353,222.3,343,234z"/>
<text transform="matrix(1 0 0 1 121.5762 335.4102)" class="st1 st2 st3">F</text>
<path class="st0" d="M365,161.5c-12-4.8-26.4-7.1-43.4-7.1H116.9c-16.9,0-31.4,2.4-43.4,7.1c-12,4.8-18,10.5-18,17.2v81.2
	c0,6.7,6,12.4,18,17.2s26.5,7.1,43.4,7.1h204.7c16.9,0,31.4-2.4,43.4-7.1c12-4.8,18-10.5,18-17.2v-81.2C383,172,377,166.2,365,161.5
	z"/>
<path class="st0" d="M147.2,161.5c-4.8-4.8-10.5-7.1-17.2-7.1H48.8c-6.7,0-12.4,2.4-17.2,7.1c-4.8,4.8-7.1,10.5-7.1,17.2v81.2
	c0,6.7,2.4,12.4,7.1,17.2s10.5,7.1,17.2,7.1H130c6.7,0,12.4-2.4,17.2-7.1s7.1-10.5,7.1-17.2v-81.2C154.3,172,152,166.2,147.2,161.5z
	"/>
<path class="st0" d="M406.9,161.5c-4.8-4.8-10.5-7.1-17.2-7.1h-81.2c-6.7,0-12.4,2.4-17.2,7.1c-4.8,4.8-7.1,10.5-7.1,17.2v81.2
	c0,6.7,2.4,12.4,7.1,17.2s10.5,7.1,17.2,7.1h81.2c6.7,0,12.4-2.4,17.2-7.1s7.1-10.5,7.1-17.2v-81.2C414,172,411.6,166.2,406.9,161.5
	z"/>
<g>
	<path d="M201.3,203.8c-1.5-1.3-3.9-1.9-7.1-1.9h-8.9v15.3h8.9c3.2,0,5.6-0.6,7.1-1.9c1.5-1.3,2.3-3.2,2.3-5.7
		S202.8,205.1,201.3,203.8z"/>
	<path d="M406.9,161.5c-4.8-4.8-10.5-7.1-17.2-7.1h-68.1h-13.1H130h-13.1H48.8c-6.7,0-12.4,2.4-17.2,7.1c-4.8,4.8-7.1,10.5-7.1,17.2
		v81.2c0,6.7,2.4,12.4,7.1,17.2c4.8,4.8,10.5,7.1,17.2,7.1h68.1H130h178.5h13.1h68.1c6.7,0,12.4-2.4,17.2-7.1
		c4.8-4.8,7.1-10.5,7.1-17.2v-81.2C414,172,411.6,166.2,406.9,161.5z M111.2,243.3H73v-49.6h37.2v8.3H83.4v12.3h21.1v8H83.4v12.6
		h27.9V243.3z M136.4,211.8c1.6,1,4.5,1.8,8.7,2.6c4.4,0.8,7.9,1.8,10.4,3.1c2.6,1.2,4.5,2.7,5.7,4.6c1.2,1.8,1.8,4.1,1.8,6.8
		c0,3-0.8,5.5-2.5,7.7c-1.7,2.2-4,3.8-7,5c-3,1.2-6.4,1.8-10.2,1.8c-5.3,0-9.6-0.7-13-2.2c-3.4-1.5-6.1-3.7-8.2-6.7l6-7.1
		c1.8,3,3.9,5,6.2,6.2c2.3,1.1,5.2,1.7,8.7,1.7c3.1,0,5.5-0.5,7.1-1.5c1.6-1,2.4-2.4,2.4-4.2c0-1.3-0.8-2.4-2.3-3.3
		c-1.5-0.9-4.3-1.7-8.2-2.5c-4.5-0.9-8.1-2-10.8-3.3c-2.7-1.3-4.7-2.8-5.9-4.7c-1.2-1.8-1.8-4.1-1.8-6.9c0-2.9,0.8-5.5,2.3-7.8
		c1.6-2.3,3.8-4.1,6.8-5.4c3-1.3,6.5-2,10.5-2c4.5,0,8.3,0.7,11.5,2.2c3.2,1.5,6,3.8,8.5,7l-6.9,6.8c-1.3-2.6-2.9-4.6-5-5.9
		c-2.1-1.3-4.7-1.9-7.9-1.9c-2.9,0-5.2,0.5-6.7,1.6c-1.6,1.1-2.4,2.5-2.4,4.3C134,209.5,134.8,210.9,136.4,211.8z M209.3,221.1
		c-3.2,2.8-7.7,4.1-13.4,4.1h-10.4v18H175v-49.6h20.8c5.8,0,10.2,1.4,13.4,4.2c3.2,2.8,4.8,6.7,4.8,11.8
		C214.1,214.5,212.5,218.3,209.3,221.1z M255.2,243.3l-4.1-12.1H232l-4.1,12.1h-10.6l18.1-49.6h12.4l18.1,49.6H255.2z M309.3,241
		c-3.7,2.4-8.1,3.6-13.3,3.6c-4.8,0-9.1-1-12.7-3.1c-3.6-2-6.4-5-8.3-8.8c-1.9-3.8-2.9-8.4-2.9-13.6c0-5.2,1-9.8,2.9-13.6
		c1.9-3.8,4.7-6.8,8.2-8.8c3.6-2,7.8-3.1,12.5-3.1c5.1,0,9.5,1.1,13.1,3.2c3.6,2.1,6,5.3,7.4,9.6l-9.4,4c-0.8-2.9-2-5.1-3.7-6.4
		c-1.7-1.3-4-1.9-6.9-1.9c-4.2,0-7.5,1.5-9.9,4.4c-2.4,2.9-3.6,7.1-3.6,12.6c0,5.4,1.1,9.6,3.4,12.6c2.3,2.9,5.5,4.4,9.7,4.4
		c6,0,9.8-2.9,11.4-8.8l9.5,2.8C315.5,235,312.9,238.6,309.3,241z M365.5,244.6h-39.3v-50.9h38.2v8.6h-27.6v12.7h21.7v8.2h-21.7v13
		h28.6V244.6z"/>
	<polygon points="241.6,202 241.4,202 239.3,209.4 234.5,223.5 248.5,223.5 243.8,209.5 	"/>
</g>
<g class="st4">
	<path class="st5" d="M365.5,236v8.6h-39.3v-50.9h38.2v8.6h-27.6v12.7h21.7v8.2h-21.7v13H365.5z"/>
	<path class="st5" d="M309.3,241c-3.7,2.4-8.1,3.6-13.3,3.6c-4.8,0-9.1-1-12.7-3.1c-3.6-2-6.4-5-8.3-8.8c-1.9-3.8-2.9-8.4-2.9-13.6
		c0-5.2,1-9.8,2.9-13.6c1.9-3.8,4.7-6.8,8.2-8.8c3.6-2,7.8-3.1,12.5-3.1c5.1,0,9.5,1.1,13.1,3.2c3.6,2.1,6,5.3,7.4,9.6l-9.4,4
		c-0.8-2.9-2-5.1-3.7-6.4c-1.7-1.3-4-1.9-6.9-1.9c-4.2,0-7.5,1.5-9.9,4.4c-2.4,2.9-3.6,7.1-3.6,12.6c0,5.4,1.1,9.6,3.4,12.6
		c2.3,2.9,5.5,4.4,9.7,4.4c6,0,9.8-2.9,11.4-8.8l9.5,2.8C315.5,235,312.9,238.6,309.3,241z"/>
	<path class="st5" d="M251.1,231.2H232l-4.1,12.1h-10.6l18.1-49.6h12.4l18.1,49.6h-10.7L251.1,231.2z M248.5,223.5l-4.7-14l-2.3-7.5
		h-0.1l-2.1,7.4l-4.8,14.1H248.5z"/>
	<g class="st6">
		<path class="st7" d="M209.3,197.8c3.2,2.8,4.8,6.7,4.8,11.8c0,4.9-1.6,8.7-4.8,11.5c-3.2,2.8-7.7,4.1-13.4,4.1h-10.4v18H175v-49.6
			h20.8C201.6,193.7,206.1,195.1,209.3,197.8z M201.3,215.3c1.5-1.3,2.3-3.2,2.3-5.7c0-2.6-0.8-4.5-2.3-5.7
			c-1.5-1.3-3.9-1.9-7.1-1.9h-8.9v15.3h8.9C197.5,217.2,199.8,216.6,201.3,215.3z"/>
	</g>
	<g class="st6">
		<path class="st7" d="M154.5,195.9c3.2,1.5,6,3.8,8.5,7l-6.9,6.8c-1.3-2.6-2.9-4.6-5-5.9c-2.1-1.3-4.7-1.9-7.9-1.9
			c-2.9,0-5.2,0.5-6.7,1.6c-1.6,1.1-2.4,2.5-2.4,4.3c0,1.7,0.8,3,2.4,3.9c1.6,1,4.5,1.8,8.7,2.6c4.4,0.8,7.9,1.8,10.4,3.1
			c2.6,1.2,4.5,2.7,5.7,4.6c1.2,1.8,1.8,4.1,1.8,6.8c0,3-0.8,5.5-2.5,7.7c-1.7,2.2-4,3.8-7,5c-3,1.2-6.4,1.8-10.2,1.8
			c-5.3,0-9.6-0.7-13-2.2c-3.4-1.5-6.1-3.7-8.2-6.7l6-7.1c1.8,3,3.9,5,6.2,6.2c2.3,1.1,5.2,1.7,8.7,1.7c3.1,0,5.5-0.5,7.1-1.5
			c1.6-1,2.4-2.4,2.4-4.2c0-1.3-0.8-2.4-2.3-3.3c-1.5-0.9-4.3-1.7-8.2-2.5c-4.5-0.9-8.1-2-10.8-3.3c-2.7-1.3-4.7-2.8-5.9-4.7
			c-1.2-1.8-1.8-4.1-1.8-6.9c0-2.9,0.8-5.5,2.3-7.8c1.6-2.3,3.8-4.1,6.8-5.4c3-1.3,6.5-2,10.5-2
			C147.5,193.7,151.3,194.4,154.5,195.9z"/>
	</g>
	<path class="st5" d="M111.2,234.9v8.3H73v-49.6h37.2v8.3H83.4v12.3h21.1v8H83.4v12.6H111.2z"/>
</g>
<text transform="matrix(1 0 0 1 193.5918 246.6396)" class="st1 st2 st8">F</text>
<g class="st0">
	<path class="st5" d="M341.3,331.5h-42.2v-117l2-65.6h-0.7l-62.2,182.6h-38.4L138,148.9h-0.7l2.4,65.6v117H97.2V107.1h68l40.5,122.4
		l14.3,50.7h0.7l14.6-50.3l40.1-122.7h66v224.3H341.3z"/>
</g>
<path class="st0" d="M414.4,24.1C398.3,8,379,0,356.3,0H82.2c-22.6,0-42,8-58.1,24.1S0,59.6,0,82.2v274.1c0,22.6,8,42,24.1,58.1
	s35.5,24.1,58.1,24.1h274.1c22.6,0,42-8,58.1-24.1s24.1-35.5,24.1-58.1V82.2C438.5,59.6,430.5,40.2,414.4,24.1z M309.5,139.2H179.4
	v61h102.7v40.9H179.4v98.7H129V98.7h180.5V139.2z"/>
<path class="st9" d="M269.6,106.9c-11.2-13.3-31.1-14.9-44.2-3.6c-13.2,11.2-14.9,31.1-3.6,44.3l29.5,34.7H124.8
	c-17.3,0-31.4,14-31.4,31.4c0,17.3,14.1,31.4,31.4,31.4h126.5l-29.5,34.8c-11.2,13.2-9.6,33,3.6,44.2c5.9,5,13.1,7.5,20.3,7.5
	c8.9,0,17.7-3.8,23.9-11.1L343,234c10-11.7,10-28.9,0-40.6L269.6,106.9z"/>
</svg>
