<?xml version="1.0" encoding="utf-8"?>
<!-- Generator: Adobe Illustrator 21.0.0, SVG Export Plug-In . SVG Version: 6.00 Build 0)  -->
<svg version="1.1" id="Capa_1" xmlns="http://www.w3.org/2000/svg" xmlns:xlink="http://www.w3.org/1999/xlink" x="0px" y="0px"
	 viewBox="0 0 475.1 475.1" style="enable-background:new 0 0 475.1 475.1;" xml:space="preserve">
<style type="text/css">
	.st0{display:none;}
	.st1{display:inline;}
</style>
<path d="M237.5,4.4C108.1,4.4,3.2,109.3,3.2,238.7s104.9,234.4,234.4,234.4S472,368.2,472,238.7S367,4.4,237.5,4.4z M186.7,156.2
	c0-14,5-26,14.9-35.9c10-10,21.9-14.9,35.9-14.9c14,0,26,5,35.9,14.9c10,10,14.9,21.9,14.9,35.9v81.4c0,14-5,26-14.9,35.9
	c-10,10-21.9,14.9-35.9,14.9s-26-5-35.9-14.9c-10-10-14.9-21.9-14.9-35.9L186.7,156.2L186.7,156.2z M329.1,237.5
	c0,23.4-7.8,43.8-23.4,61.1c-15.6,17.3-34.9,27.3-57.9,29.8v21h40.7c2.8,0,5.1,1,7.2,3c2,2,3,4.4,3,7.2c0,2.8-1,5.1-3,7.2
	c-2,2-4.4,3-7.2,3H186.7c-2.8,0-5.1-1-7.2-3c-2-2-3-4.4-3-7.2c0-2.8,1-5.1,3-7.2c2-2,4.4-3,7.2-3h40.7v-21
	c-23-2.5-42.3-12.5-57.9-29.8C153.8,281.3,146,261,146,237.5v-20.3c0-2.8,1-5.1,3-7.2c2-2,4.4-3,7.2-3s5.1,1,7.2,3c2,2,3,4.4,3,7.2
	v20.3c0,19.6,7,36.4,20.9,50.3s30.7,20.9,50.3,20.9s36.4-7,50.3-20.9s20.9-30.7,20.9-50.3v-20.3c0-2.8,1-5.1,3-7.2c2-2,4.4-3,7.2-3
	c2.8,0,5.1,1,7.2,3c2,2,3,4.4,3,7.2v20.3H329.1z"/>
<g class="st0">
	<g class="st1">
		<path d="M263.5,437.4c14,0,26-5,35.9-14.9c10-10,14.9-21.9,14.9-35.9v-81.4c0-14-5-26-14.9-35.9c-10-10-21.9-14.9-35.9-14.9
			s-26,5-35.9,14.9c-10,10-14.9,21.9-14.9,35.9v81.4c0,14,5,26,14.9,35.9C237.6,432.4,249.6,437.4,263.5,437.4z"/>
		<path d="M352.1,359c-2-2-4.4-3-7.2-3c-2.8,0-5.1,1-7.2,3c-2,2-3,4.4-3,7.2v20.3c0,19.6-7,36.4-20.9,50.3s-30.7,20.9-50.3,20.9
			c-19.6,0-36.4-7-50.3-20.9c-13.9-13.9-20.9-30.7-20.9-50.3v-20.3c0-2.8-1-5.1-3-7.2c-2-2-4.4-3-7.2-3s-5.1,1-7.2,3
			c-2,2-3,4.4-3,7.2v20.3c0,23.4,7.8,43.8,23.4,61.1c15.6,17.3,34.9,27.3,57.9,29.8v21h-40.7c-2.8,0-5.1,1-7.2,3c-2,2-3,4.4-3,7.2
			c0,2.8,1,5.1,3,7.2c2,2,4.4,3,7.2,3h101.7c2.8,0,5.1-1,7.2-3c2-2,3-4.4,3-7.2c0-2.8-1-5.1-3-7.2c-2-2-4.4-3-7.2-3h-40.7v-21
			c23-2.5,42.3-12.5,57.9-29.8s23.4-37.7,23.4-61.1v-20.3C355.1,363.4,354.1,361.1,352.1,359z"/>
	</g>
</g>
</svg>
