<?xml version="1.0" encoding="utf-8"?>
<!-- Generator: Adobe Illustrator 21.0.0, SVG Export Plug-In . SVG Version: 6.00 Build 0)  -->
<svg version="1.1" id="Calque_1" xmlns="http://www.w3.org/2000/svg" xmlns:xlink="http://www.w3.org/1999/xlink" x="0px" y="0px"
	 viewBox="0 0 410.3 410.3" style="enable-background:new 0 0 410.3 410.3;" xml:space="preserve">
<style type="text/css">
	.st0{display:none;}
	.st1{display:inline;}
	.st2{display:inline;fill:#4DD100;}
</style>
<path d="M205.1,0C91.8,0,0,91.8,0,205.1s91.8,205.1,205.1,205.1s205.1-91.8,205.1-205.1S318.4,0,205.1,0z M188,311.6h-78.4
	c-6.1,0-10.9-5.2-10.9-11.3v-79.7c0-6.1,5-11.1,11.1-11.1s11.1,5,11.1,11.1v53.5l56.2-56.2c2.2-2,5-3.2,7.7-3.2
	c2.8,0,5.5,1.1,7.7,3.3c4.2,4.2,4.2,11.5,0,15.7l-55.8,55.8h51.4c6,0,11,4.8,11,10.9C199.1,306.6,194.1,311.6,188,311.6z M313,190.2
	c0,6.1-5,11.1-11.1,11.1c-6.1,0-11.1-5-11.1-11.1v-54.2l-55.6,55.2c-4.3,4.2-11.9,4.2-16.1,0c-4.2-4.4-4.2-11.5,0-15.7l56-56h-53.5
	c-6.1,0-11-5-11-11.1s5-11.1,11.1-11.1H301c6,0,12,5,12,11.1V190.2z"/>
<g id="Capa_1_-_copie_4" class="st0">
	<circle class="st1" cx="205.1" cy="205.1" r="205.1"/>
	<path class="st2" d="M109.7,231.6H161l-55.8,55.8c-4.2,4.2-4.2,11.5,0,15.7c2.2,2.2,5,3.3,7.7,3.3c2.8,0,5.5-1.1,7.7-3.2l56.2-56.2
		v53.5c0,6.1,5,11.1,11.1,11.1s11.1-5,11.1-11.1v-79.7c0-6.1-4.8-11.3-10.9-11.3h-78.4c-6.1,0-11.1,5-11.1,11.1
		C98.7,226.8,103.7,231.6,109.7,231.6z"/>
	<path class="st2" d="M302,179.1h-53.5l56-56c4.2-4.2,4.2-11.3,0-15.7c-4.2-4.2-11.8-4.2-16.1,0L233,162.5v-54.2
		c0-6.1-5-11.1-11.1-11.1c-6.1,0-11.1,5-11.1,11.1v81.9c0,6.1,5.9,11.1,12,11.1h79.2c6.1,0,11.1-5,11.1-11.1S308.1,179.1,302,179.1z
		"/>
</g>
<g id="Capa_1_-_copie_3" class="st0">
	<path class="st1" d="M205.1,0C91.8,0,0,91.8,0,205.1s91.8,205.1,205.1,205.1s205.1-91.8,205.1-205.1S318.4,0,205.1,0z M192,314.1
		c0,6.5-5.3,11.9-11.9,11.9c-6.5,0-11.9-5.3-11.9-11.9v-57.4l-60.4,60.4c-2.4,2.2-5.3,3.4-8.3,3.4s-5.9-1.2-8.3-3.6
		c-4.6-4.6-4.6-12.3,0-16.8l60-60h-55c-6.5,0-11.9-5.1-11.9-11.7s5.3-11.9,11.9-11.9h84.2c6.5,0,11.7,5.5,11.7,12.1L192,314.1
		L192,314.1z M314.1,196h-85c-6.5,0-12.9-5.3-12.9-11.9V96.2c0-6.5,5.3-11.9,11.9-11.9S240,89.6,240,96.2v58.2l59.6-59.2
		c4.6-4.6,12.7-4.6,17.2,0c4.6,4.8,4.6,12.3,0,16.8l-60.2,60.2H314c6.5,0,11.9,5.3,11.9,11.9S320.7,196,314.1,196z"/>
</g>
<g id="Capa_1_-_copie_2" class="st0">
	<circle class="st1" cx="205.1" cy="205.1" r="205.1"/>
	<path class="st2" d="M96.2,240h55.1l-60,60c-4.6,4.6-4.6,12.3,0,16.8c2.4,2.4,5.3,3.6,8.3,3.6s5.9-1.2,8.3-3.4l60.4-60.4V314
		c0,6.5,5.3,11.9,11.9,11.9c6.5,0,11.9-5.3,11.9-11.9v-85.6c0-6.5-5.1-12.1-11.7-12.1H96.2c-6.5,0-11.9,5.3-11.9,11.9
		S89.6,240,96.2,240z"/>
	<path class="st2" d="M314.1,172.2h-57.4l60.2-60.2c4.6-4.6,4.6-12.1,0-16.8c-4.6-4.6-12.7-4.6-17.2,0L240,154.4V96.2
		c0-6.5-5.3-11.9-11.9-11.9c-6.5,0-11.9,5.3-11.9,11.9v87.9c0,6.5,6.3,11.9,12.9,11.9h85c6.5,0,11.9-5.3,11.9-11.9
		C326,177.6,320.7,172.2,314.1,172.2z"/>
</g>
<g id="Capa_1" class="st0">
	<path class="st1" d="M17,154.1h124.1c9.4,0,15.9-8.8,15.9-18.4V17c0-9.4-7.6-17-17-17s-17,7.7-17,17v80.2L36.3,9.9
		c-6.5-6.5-17.3-6.5-23.8,0S6,28,12.5,34.6l85,85.6H17c-9.4,0-17,7.7-17,17S7.7,154.1,17,154.1z"/>
	<path class="st1" d="M17,287.3h78.8L9.9,373.1c-6.5,6.5-6.5,17.6,0,24.1c3.4,3.4,7.6,5.1,11.9,5.1s8.5-1.7,11.9-4.8l86.4-86.4v82.2
		c0,9.4,7.7,17,17,17s17-7.6,17-17V270.9c0-9.4-7.4-17.3-16.7-17.3H17c-9.4,0-17,7.7-17,17C0,279.9,7.7,287.3,17,287.3z"/>
	<path class="st1" d="M410.3,278.8c0-9.4-7.6-17-17-17H271.7c-9.4,0-18.4,6.5-18.4,15.9V393c0,9.4,7.6,17,17,17s17-7.6,17-17v-77.4
		l85.6,84.7c3.4,3.4,7.9,5.1,12.5,5.1c4.5,0,8.8-1.7,12.2-5.1c6.5-6.5,6.8-17,0-23.5l-81.6-81h77.4
		C402.6,295.8,410.3,288.1,410.3,278.8z"/>
	<path class="st1" d="M393.3,125.8h-82.2l86.1-86.1c6.5-6.5,6.5-17.3,0-24.1c-6.5-6.5-18.1-6.5-24.6,0l-85.3,84.7V17
		c0-9.4-7.6-17-17-17s-17,7.7-17,17v125.8c0,9.4,9.1,17,18.4,17h121.5c9.4,0,17-7.6,17-17S402.6,125.8,393.3,125.8z"/>
</g>
</svg>
