<?xml version="1.0" encoding="utf-8"?>
<!-- Generator: Adobe Illustrator 21.0.0, SVG Export Plug-In . SVG Version: 6.00 Build 0)  -->
<svg version="1.1" id="Layer_1" xmlns="http://www.w3.org/2000/svg" xmlns:xlink="http://www.w3.org/1999/xlink" x="0px" y="0px"
	 viewBox="0 0 512 512" style="enable-background:new 0 0 512 512;" xml:space="preserve">
<g>
	<g>
		<path d="M383.1,236.3L215.6,131.5c-7.2-4.5-16.2-4.7-23.6-0.6c-7.4,4.1-12,11.9-12,20.4v209.5c0,8.5,4.6,16.3,12,20.4
			c3.5,1.9,7.4,2.9,11.3,2.9c4.3,0,8.6-1.2,12.3-3.5l167.6-104.7c6.8-4.3,10.9-11.7,10.9-19.7C394.1,248,390,240.5,383.1,236.3z
			 M226.5,318.7V193.3L326.9,256L226.5,318.7z"/>
	</g>
</g>
<g>
	<g>
		<path d="M256,0C114.8,0,0,114.8,0,256s114.8,256,256,256s256-114.8,256-256S397.2,0,256,0z M256,465.5
			c-115.5,0-209.5-94-209.5-209.5S140.5,46.5,256,46.5s209.5,94,209.5,209.5S371.5,465.5,256,465.5z"/>
	</g>
</g>
</svg>
