<?xml version="1.0" encoding="utf-8"?>
<!-- Generator: Adobe Illustrator 21.0.0, SVG Export Plug-In . SVG Version: 6.00 Build 0)  -->
<svg version="1.1" id="Capa_1" xmlns="http://www.w3.org/2000/svg" xmlns:xlink="http://www.w3.org/1999/xlink" x="0px" y="0px"
	 viewBox="0 0 508.5 508.5" style="enable-background:new 0 0 508.5 508.5;" xml:space="preserve">
<style type="text/css">
	.st0{fill:#010002;}
	.st1{display:none;fill:#010002;}
	.st2{display:none;}
	.st3{display:inline;fill:#4CC100;}
	.st4{display:none;fill:#B26B04;}
</style>
<path class="st0" d="M254.3,0C113.8,0,0,113.8,0,254.3s113.8,254.3,254.3,254.3s254.3-113.8,254.3-254.3S394.7,0,254.3,0z
	 M270.8,375.4c-1.3,5.4-5.6,10.5-11.7,11.1c-3,0.3-6.5-0.5-10.7-3c0,0-68.9-58-72-61h-37.9c-9.1,0-16.5-7.4-16.5-16.5V204.7
	c0-9.1,7.4-16.5,16.5-16.5h37.9c3-3,72-63.1,72-63.1c4.1-2.5,7.7-3.2,10.7-3c6.1,0.6,10.4,5.7,11.7,11.1
	C270.9,133.7,270.9,374.8,270.8,375.4z M307.9,314c-3.2,0-6.4-1.2-8.9-3.7c-4.9-4.9-4.9-12.8,0-17.7c21.2-21.1,21.2-55.6,0-76.7
	c-4.9-4.9-4.9-12.8,0-17.7s12.8-4.9,17.7,0c30.9,30.9,30.9,81.2,0,112.1C314.3,312.8,311.1,314,307.9,314z M361.3,333.9
	c-2.4,2.4-5.6,3.7-8.9,3.7s-6.4-1.2-8.9-3.7c-4.9-4.9-4.9-12.8,0-17.7c34.2-34.2,34.2-89.8,0-123.9c-4.9-4.9-4.9-12.8,0-17.7
	c4.9-4.9,12.8-4.9,17.7,0c21.3,21.3,33,49.6,33,79.7C394.3,284.4,382.5,312.6,361.3,333.9z"/>
<circle class="st1" cx="254.3" cy="254.3" r="254.3"/>
<g class="st2">
	<path class="st3" d="M316.8,198.2c-4.9-4.9-12.8-4.9-17.7,0c-4.9,4.9-4.9,12.8,0,17.7c21.2,21.2,21.2,55.6,0,76.7
		c-4.9,4.9-4.9,12.8,0,17.7c2.4,2.4,5.6,3.7,8.9,3.7c3.2,0,6.4-1.2,8.9-3.7C347.7,279.4,347.7,229.1,316.8,198.2z"/>
	<path class="st3" d="M361.3,174.6c-4.9-4.9-12.8-4.9-17.7,0c-4.9,4.9-4.9,12.8,0,17.7c34.2,34.2,34.2,89.8,0,123.9
		c-4.9,4.9-4.9,12.8,0,17.7c2.4,2.4,5.6,3.7,8.9,3.7s6.4-1.2,8.9-3.7c21.3-21.3,33-49.6,33-79.7
		C394.3,224.2,382.5,195.9,361.3,174.6z"/>
</g>
<path class="st4" d="M259.1,122.1c-3-0.3-6.5,0.4-10.7,3c0,0-68.9,60.1-72,63.1h-37.9c-9.1,0-16.5,7.4-16.5,16.5V306
	c0,9.2,7.4,16.5,16.5,16.5h37.9c3,3,72,61,72,61c4.1,2.5,7.7,3.2,10.7,3c6.1-0.6,10.4-5.7,11.7-11.1c0-0.5,0-241.6,0-242.2
	C269.5,127.8,265.2,122.6,259.1,122.1z"/>
<path class="st4" d="M355,254.3l28.5-28.5c4-3.9,4-10.3,0-14.3c-3.9-3.9-10.3-3.9-14.3,0L340.8,240l-28.6-28.6
	c-3.9-3.9-10.3-3.9-14.3,0c-3.9,3.9-3.9,10.3,0,14.3l28.5,28.5L298,282.8c-3.9,3.9-3.9,10.3,0,14.3c3.9,3.9,10.3,3.9,14.3,0
	l28.6-28.5l28.5,28.5c3.9,3.9,10.3,3.9,14.3,0c3.9-3.9,3.9-10.3,0-14.3L355,254.3z"/>
<path class="st1" d="M254.3,0C113.8,0,0,113.8,0,254.3s113.8,254.3,254.3,254.3s254.3-113.8,254.3-254.3S394.7,0,254.3,0z
	 M270.8,375.4c-1.3,5.4-5.6,10.5-11.7,11.1c-3,0.3-6.5-0.5-10.7-3c0,0-68.9-58-72-61h-37.9c-9.1,0-16.5-7.4-16.5-16.5V204.7
	c0-9.1,7.4-16.5,16.5-16.5h37.9c3-3,72-63.1,72-63.1c4.1-2.5,7.7-3.2,10.7-3c6.1,0.6,10.4,5.7,11.7,11.1
	C270.9,133.7,270.9,374.8,270.8,375.4z M383.6,282.8c3.9,3.9,3.9,10.3,0,14.3c-3.9,3.9-10.3,3.9-14.3,0l-28.5-28.5l-28.6,28.5
	c-3.9,3.9-10.3,3.9-14.3,0c-3.9-3.9-3.9-10.3,0-14.3l28.5-28.6L298,225.7c-3.9-3.9-3.9-10.3,0-14.3c3.9-3.9,10.3-3.9,14.3,0
	l28.6,28.6l28.5-28.6c3.9-3.9,10.3-3.9,14.3,0c4,3.9,4,10.3,0,14.3L355,254.3L383.6,282.8z"/>
</svg>
